#!OML:ASF X:\für Bonn\!DataBase\2005_08_10_Bjorn_Final\c3d\bjorn.ASF
:FULLY-SPECIFIED
:DEGREES
154
root 0.60002 19.0421 2.16501 -173.16 -7.39054 176.708
lowerback 5.59896 0.712887 3.13891
upperback 9.94838 -0.196581 0.599973
thorax 7.30464 -0.3671 -1.18432
lowerneck -12.2172 -7.11344 0.117625
upperneck -1.28581 -9.82239 2.89521
head 1.80227 -4.93921 0.373278
rclavicle 6.36111e-015 -2.70347e-014
rhumerus 79.4335 -1.59204 -72.0945
rradius 8.35428
rwrist 45.8599
rhand -12.4871 8.58483
rfingers 7.12502
rthumb 13.5876 -20.9518
lclavicle 6.36111e-015 -2.70347e-014
lhumerus 79.4807 -6.93463 55.8418
lradius 12.7872
lwrist -35.2295
lhand -20.1352 -8.21788
lfingers 7.12502
lthumb 6.20928 21.6711
rfemur -26.8226 -7.12902 13.5675
rtibia 49.7474
rfoot -15.1452 12.2442
rtoes -23.9877
lfemur -25.5022 1.29834 -20.3973
ltibia 47.3292
lfoot -10.8977 -10.3347
ltoes -16.7663
155
root 0.602669 19.1593 2.10702 -173.106 -7.26809 176.895
lowerback 5.03601 0.738303 3.26608
upperback 9.74906 -0.117971 0.610197
thorax 7.41202 -0.294499 -1.24217
lowerneck -11.9445 -7.25008 -0.219346
upperneck -0.730963 -9.93308 3.10393
head 1.97205 -4.96272 0.483756
rclavicle 1.03368e-014 0
rhumerus 79.1674 -1.45325 -72.1522
rradius 8.71324
rwrist 45.9019
rhand -12.5111 8.46245
rfingers 7.12502
rthumb 13.5644 -21.0757
lclavicle 1.03368e-014 0
lhumerus 79.2146 -7.05104 56.5233
lradius 12.9422
lwrist -36.2577
lhand -20.0033 -8.28471
lfingers 7.12502
lthumb 6.33659 21.6005
rfemur -26.033 -7.20959 13.7737
rtibia 47.9867
rfoot -14.6691 11.4204
rtoes -25.517
lfemur -24.1996 1.46617 -20.1821
ltibia 45.114
lfoot -10.493 -10.2433
ltoes -17.8429
156
root 0.605508 19.2635 2.05012 -173.051 -7.14961 177.098
lowerback 4.41977 0.777753 3.42998
upperback 9.63136 -0.041283 0.606838
thorax 7.64262 -0.223163 -1.33491
lowerneck -11.7829 -7.37635 -0.460038
upperneck -0.305545 -10.0568 3.28965
head 2.11307 -5.00113 0.569942
rclavicle -2.78299e-015 -3.73715e-014
rhumerus 78.9982 -1.36913 -72.2461
rradius 9.16654
rwrist 46.0154
rhand -12.4965 8.30278
rfingers 7.12502
rthumb 13.5785 -21.2344
lclavicle -2.78299e-015 -3.73715e-014
lhumerus 79.0634 -7.09406 57.2346
lradius 13.1598
lwrist -37.3244
lhand -19.7141 -8.35904
lfingers 7.12502
lthumb 6.6158 21.5176
rfemur -25.2622 -7.31765 14.0114
rtibia 46.2514
rfoot -14.2422 10.5407
rtoes -26.9922
lfemur -22.9748 1.60938 -19.9443
ltibia 43.0399
lfoot -10.1191 -10.1545
ltoes -18.4546
157
root 0.608951 19.3511 1.99438 -173.008 -7.03502 177.323
lowerback 3.77206 0.836694 3.59654
upperback 9.58978 0.0382042 0.639975
thorax 7.97809 -0.155464 -1.39026
lowerneck -11.721 -7.49752 -0.7172
upperneck -0.0263386 -10.1812 3.4629
head 2.22424 -5.04726 0.654483
rclavicle -4.77083e-015 3.18055e-015
rhumerus 78.9746 -1.33888 -72.2896
rradius 9.65584
rwrist 46.1646
rhand -12.3893 8.12872
rfingers 7.12502
rthumb 13.6818 -21.4016
lclavicle -4.77083e-015 3.18055e-015
lhumerus 79.0342 -7.03747 58.0277
lradius 13.3904
lwrist -38.5463
lhand -19.2614 -8.51248
lfingers 7.12502
lthumb 7.05283 21.35
rfemur -24.4821 -7.47276 14.278
rtibia 44.5386
rfoot -13.7626 9.80548
rtoes -27.9508
lfemur -21.833 1.78152 -19.6902
ltibia 41.1364
lfoot -9.77212 -10.0623
ltoes -18.6662
158
root 0.612552 19.4261 1.93938 -172.974 -6.92637 177.597
lowerback 3.1865 0.861473 3.78874
upperback 9.48547 0.0794642 0.694501
thorax 8.20842 -0.104901 -1.43669
lowerneck -11.3233 -7.58135 -0.919345
upperneck -0.0161609 -10.2583 3.56247
head 2.17596 -5.08209 0.73001
rclavicle -1.15295e-014 -1.82882e-014
rhumerus 78.8655 -1.19182 -72.3501
rradius 10.1879
rwrist 46.2844
rhand -12.1403 7.94694
rfingers 7.12502
rthumb 13.9218 -21.567
lclavicle -1.15295e-014 -1.82882e-014
lhumerus 78.9547 -6.94883 58.7431
lradius 13.5592
lwrist -39.7042
lhand -18.7008 -8.66461
lfingers 7.12502
lthumb 7.59391 21.1791
rfemur -23.7186 -7.65827 14.6135
rtibia 42.8799
rfoot -13.3616 9.07992
rtoes -29.0525
lfemur -20.7771 1.95649 -19.3751
ltibia 39.4029
lfoot -9.45314 -10.0022
ltoes -18.6175
159
root 0.617046 19.4933 1.88492 -172.903 -6.80392 177.895
lowerback 2.62029 0.900849 4.03698
upperback 9.31604 0.153866 0.704728
thorax 8.35982 -0.029 -1.558
lowerneck -10.8147 -7.66857 -0.949621
upperneck -0.0594266 -10.3593 3.59854
head 2.07632 -5.13234 0.762334
rclavicle -1.43125e-014 -3.18055e-014
rhumerus 78.7158 -1.28384 -73.3481
rradius 10.6421
rwrist 47.5186
rhand -11.5807 7.90462
rfingers 7.12502
rthumb 14.461 -21.5715
lclavicle -1.43125e-014 -3.18055e-014
lhumerus 79.0107 -6.99197 58.8513
lradius 13.5685
lwrist -40.246
lhand -18.3194 -8.82961
lfingers 7.12502
lthumb 7.96211 21.0004
rfemur -23.0358 -7.90321 14.9853
rtibia 41.3213
rfoot -13.0372 8.34166
rtoes -30.3583
lfemur -19.8554 2.18074 -19.0395
ltibia 37.8527
lfoot -9.18421 -9.9387
ltoes -18.5035
160
root 0.621192 19.55 1.83086 -172.816 -6.70867 178.223
lowerback 2.07966 0.913257 4.31801
upperback 9.08986 0.197498 0.725369
thorax 8.43352 0.0342627 -1.68688
lowerneck -10.2186 -7.74669 -1.03579
upperneck -0.074512 -10.4408 3.65838
head 1.97563 -5.17165 0.815464
rclavicle 2.66371e-014 2.46493e-014
rhumerus 78.6017 -1.30554 -74.2095
rradius 10.9213
rwrist 48.8332
rhand -10.9319 7.86635
rfingers 7.12502
rthumb 15.0861 -21.5639
lclavicle 2.66371e-014 2.46493e-014
lhumerus 79.099 -7.07854 58.4048
lradius 13.4936
lwrist -40.115
lhand -18.0258 -8.85889
lfingers 7.12502
lthumb 8.24541 20.9602
rfemur -22.4243 -8.25379 15.4115
rtibia 39.9072
rfoot -12.7871 7.69734
rtoes -31.5275
lfemur -19.0485 2.44503 -18.6708
ltibia 36.4728
lfoot -8.96005 -9.91929
ltoes -18.3036
161
root 0.626693 19.5943 1.77888 -172.71 -6.61773 178.552
lowerback 1.55035 0.919136 4.58788
upperback 8.84937 0.23076 0.745878
thorax 8.48491 0.0906126 -1.80983
lowerneck -9.82848 -7.82643 -1.15033
upperneck 0.170832 -10.5245 3.70884
head 1.99997 -5.20412 0.855871
rclavicle 3.18055e-015 -1.59028e-014
rhumerus 78.6296 -1.31026 -74.9685
rradius 10.9419
rwrist 50.1572
rhand -10.5434 7.85597
rfingers 7.12502
rthumb 15.4603 -21.5458
lclavicle 3.18055e-015 -1.59028e-014
lhumerus 79.2381 -7.16968 57.7052
lradius 13.3263
lwrist -39.7307
lhand -18.0626 -8.83649
lfingers 7.12502
lthumb 8.20995 20.984
rfemur -21.9072 -8.64899 15.8452
rtibia 38.6666
rfoot -12.5217 7.25813
rtoes -32.1852
lfemur -18.3535 2.70529 -18.2952
ltibia 35.2549
lfoot -8.76995 -9.90244
ltoes -17.9663
162
root 0.632269 19.6273 1.7278 -172.648 -6.51628 178.787
lowerback 1.12044 0.931489 4.77751
upperback 8.59013 0.282336 0.724906
thorax 8.45745 0.149535 -1.93076
lowerneck -9.52842 -7.91834 -1.33832
upperneck 0.628599 -10.6244 3.87002
head 2.12379 -5.23623 0.933457
rclavicle -3.81667e-014 -1.59028e-014
rhumerus 78.7026 -1.26108 -75.2905
rradius 10.6888
rwrist 50.6524
rhand -10.499 7.84588
rfingers 7.12502
rthumb 15.5031 -21.5526
lclavicle -3.81667e-014 -1.59028e-014
lhumerus 79.4203 -7.31973 56.777
lradius 13.0854
lwrist -39.358
lhand -18.0229 -8.77361
lfingers 7.12502
lthumb 8.24826 21.0454
rfemur -21.4015 -9.17058 16.1746
rtibia 37.5936
rfoot -12.2234 7.20275
rtoes -32.1844
lfemur -17.67 3.03373 -18.0252
ltibia 34.1834
lfoot -8.65247 -9.96281
ltoes -17.6429
163
root 0.638419 19.6551 1.67717 -172.559 -6.42159 178.985
lowerback 0.647684 0.945038 4.94215
upperback 8.36323 0.327532 0.68413
thorax 8.49102 0.2037 -2.05875
lowerneck -9.2765 -8.00229 -1.47926
upperneck 1.04701 -10.7236 4.00021
head 2.23879 -5.27124 0.993003
rclavicle 4.37326e-015 2.62396e-014
rhumerus 78.8943 -1.16287 -75.0785
rradius 10.2792
rwrist 50.2215
rhand -10.5942 7.8214
rfingers 7.12502
rthumb 15.4114 -21.5841
lclavicle 4.37326e-015 2.62396e-014
lhumerus 79.7296 -7.42407 55.7088
lradius 12.777
lwrist -38.9487
lhand -17.7716 -8.80482
lfingers 7.12502
lthumb 8.49071 21.0045
rfemur -20.9849 -9.7564 16.4782
rtibia 36.6741
rfoot -11.921 7.34642
rtoes -31.7847
lfemur -17.0867 3.41641 -17.7934
ltibia 33.2477
lfoot -8.54053 -10.0847
ltoes -17.2165
164
root 0.643551 19.675 1.62776 -172.467 -6.31451 179.168
lowerback 0.165004 0.955687 5.06524
upperback 8.16593 0.357873 0.679688
thorax 8.56147 0.24408 -2.12607
lowerneck -8.94242 -8.07032 -1.66284
upperneck 1.236 -10.7975 4.10901
head 2.26312 -5.30241 1.06289
rclavicle -3.33958e-014 -7.95139e-015
rhumerus 79.2285 -1.08908 -75.0683
rradius 9.75291
rwrist 50.0826
rhand -10.7106 7.86674
rfingers 7.12502
rthumb 15.2992 -21.5474
lclavicle -3.33958e-014 -7.95139e-015
lhumerus 80.1708 -7.43279 54.258
lradius 12.4323
lwrist -38.0933
lhand -17.6365 -8.79661
lfingers 7.12502
lthumb 8.62118 21.0074
rfemur -20.6247 -10.3809 16.7576
rtibia 35.8889
rfoot -11.6454 7.67435
rtoes -31.0537
lfemur -16.5561 3.79236 -17.5887
ltibia 32.415
lfoot -8.48697 -10.1528
ltoes -16.5989
165
root 0.649696 19.6888 1.58012 -172.381 -6.22564 179.331
lowerback -0.291044 0.969511 5.18629
upperback 7.98425 0.390836 0.649116
thorax 8.63459 0.285486 -2.21965
lowerneck -8.72588 -8.14408 -1.85718
upperneck 1.46878 -10.886 4.29898
head 2.33058 -5.33776 1.15354
rclavicle 1.39149e-014 6.36111e-015
rhumerus 79.5941 -1.08744 -75.0824
rradius 9.19588
rwrist 49.9411
rhand -10.882 7.91338
rfingers 7.12502
rthumb 15.1341 -21.5133
lclavicle 1.39149e-014 6.36111e-015
lhumerus 80.6835 -7.43468 52.8028
lradius 12.0978
lwrist -37.0994
lhand -17.6036 -8.6944
lfingers 7.12502
lthumb 8.65287 21.1083
rfemur -20.3157 -11.1254 17.0238
rtibia 35.2282
rfoot -11.3579 8.14497
rtoes -30.1846
lfemur -16.0787 4.18015 -17.3989
ltibia 31.6843
lfoot -8.50287 -10.2626
ltoes -16.0566
166
root 0.656651 19.6963 1.53328 -172.318 -6.14589 179.438
lowerback -0.70393 0.975735 5.23633
upperback 7.81054 0.416007 0.616296
thorax 8.68887 0.316411 -2.27675
lowerneck -8.59521 -8.2109 -2.0384
upperneck 1.73093 -10.9676 4.44544
head 2.41996 -5.37001 1.22482
rclavicle -3.37934e-015 -4.53229e-014
rhumerus 79.9199 -1.10908 -75.0864
rradius 8.75296
rwrist 49.8342
rhand -11.0351 7.99646
rfingers 7.12502
rthumb 14.9867 -21.4412
lclavicle -3.37934e-015 -4.53229e-014
lhumerus 81.0381 -7.40176 51.9178
lradius 11.9255
lwrist -36.3278
lhand -17.5532 -8.60146
lfingers 7.12502
lthumb 8.70157 21.1992
rfemur -20.0235 -11.8989 17.232
rtibia 34.6857
rfoot -11.108 8.70707
rtoes -29.2843
lfemur -15.6181 4.53163 -17.264
ltibia 31.0451
lfoot -8.54701 -10.375
ltoes -15.2243
167
root 0.662279 19.6958 1.48772 -172.27 -6.03357 179.462
lowerback -1.09491 0.993542 5.22632
upperback 7.6675 0.459319 0.538465
thorax 8.76484 0.353169 -2.34644
lowerneck -8.36855 -8.27276 -2.00981
upperneck 1.75363 -11.0525 4.42249
head 2.38557 -5.41404 1.21725
rclavicle 5.96354e-016 -1.51076e-014
rhumerus 80.1352 -1.12325 -75.1231
rradius 8.60307
rwrist 49.7346
rhand -11.1989 7.96962
rfingers 7.12502
rthumb 14.8288 -21.4798
lclavicle 5.96354e-016 -1.51076e-014
lhumerus 81.2283 -7.32251 51.9731
lradius 11.9645
lwrist -36.1801
lhand -17.391 -8.56332
lfingers 7.12502
lthumb 8.85807 21.2308
rfemur -19.7657 -12.7424 17.323
rtibia 34.2616
rfoot -10.7628 9.43459
rtoes -27.9625
lfemur -15.1814 4.9111 -17.2308
ltibia 30.4953
lfoot -8.7008 -10.4866
ltoes -14.5691
